# xmcd
#
# Track frame offsets: 
#        150
#        16508
#        30628
#        42660
#        59973
#        81730
#        97295
#        114023
#        135360
#        154583
#
# Disc length: 2443 seconds
#
# Revision: 4
# Processed by: cddbd v1.5.2PL0 Copyright (c) Steve Scherf et al.
# Submitted via: ExactAudioCopy v0.99pb5
#
DISCID=8109890a
DTITLE=Jo-El Sonnier - Come On Joe
DYEAR=1987
DGENRE=Cajun
TTITLE0=Baby Hold On
TTITLE1=Paid The Price
TTITLE2=So Long Baby Goodbye
TTITLE3=No More One More Time
TTITLE4=Come On Joe
TTITLE5=Say You Love Me
TTITLE6=Rainin' In My Heart
TTITLE7=Louisiana 1927
TTITLE8=Tear-Stained Letter
TTITLE9=I've Slipped Her Mind
EXTD=
EXTT0=
EXTT1=
EXTT2=
EXTT3=
EXTT4=
EXTT5=
EXTT6=
EXTT7=
EXTT8=
EXTT9=
PLAYORDER=
